<svg width="369" height="266" viewBox="0 0 369 266" fill="none" xmlns="http://www.w3.org/2000/svg">
<path d="M256.424 202.05C198.917 241.903 133.291 217.659 107.666 200.555H107.166C106.834 199.891 106.068 198.164 105.669 196.57C105.398 195.488 102.966 193.122 100.651 191.09M256.424 202.05C233.96 216.497 173.259 236.124 110.161 199.061M256.424 202.05C200.914 239.512 135.787 219.984 110.161 205.537V199.061M256.424 202.05L255.925 201.552M110.161 199.061L106.667 196.072L102.674 191.588L100.651 191.09M295.86 195.574L290.369 199.559C288.372 194.378 266.241 198.397 255.426 201.053L255.925 201.552M295.86 195.574C301.185 196.404 310.536 199.758 305.345 206.533C299.021 211.515 279.287 222.375 250.933 225.962C225.807 230.279 164.673 236.324 121.144 225.962C82.2069 218.987 22.404 201.95 94.6866 189.595L97.6817 188.599M295.86 195.574C286.275 192.784 274.561 187.437 269.902 185.112M97.6817 188.599C98.484 189.24 99.5546 190.127 100.651 191.09M97.6817 188.599L89.4387 177.141M83.7044 169.171C38.4446 173.488 -36.1011 192.086 27.7952 231.94C64.5688 252.199 171.562 283.65 305.345 247.383C356.095 229.283 422.854 188.201 283.879 168.672M83.7044 169.171C53.753 118.955 52.5883 59.5734 55.7498 36.1595M83.7044 169.171L89.4387 177.141M283.879 168.672L296.359 141.273M283.879 168.672L276.891 176.892M255.925 201.552L269.902 185.112M269.902 185.112L276.891 176.892M290.369 196.072L270.9 188.101L263.413 197.068L279.387 194.079L281.383 195.075H282.881L271.899 191.09L269.902 192.086L268.405 194.079L271.899 193.581M296.359 141.273C325.479 138.118 379.824 121.147 364.249 78.5039C359.923 68.7065 344.082 51.802 315.328 62.5624M296.359 141.273C297.886 138.653 299.339 135.439 300.712 131.808M315.328 62.5624C314.991 65.5421 314.54 69.091 313.981 73.024M315.328 62.5624L313.981 73.024M300.712 131.808C301.271 130.33 301.817 128.783 302.349 127.178M300.712 131.808C301.962 131.586 303.473 131.288 305.116 130.927M302.349 127.178L325.312 123.837C325.645 122.343 325.711 120.25 323.315 123.837C321.377 126.738 312.065 129.4 305.116 130.927M302.349 127.178C302.71 126.089 303.065 124.975 303.414 123.837M303.414 123.837L305.116 130.927M303.414 123.837C307.532 110.394 310.768 93.7657 312.936 79.9983M303.414 123.837C311.684 123.552 324.686 121.147 334.298 114.663M312.936 79.9983C338.578 74.4188 346.181 85.9764 346.777 92.4526C346.777 98.4422 344.963 103.369 342.017 107.398M312.936 79.9983C313.318 77.5738 313.667 75.238 313.981 73.024M313.981 73.024C319.256 72.0276 330.104 70.3339 331.302 71.5295M313.981 73.024V36.1595M342.017 107.398C345.019 110.553 347.903 116.265 335.422 113.874M342.017 107.398C341.192 108.526 340.278 109.584 339.289 110.576M335.422 113.874C336.801 112.867 338.099 111.77 339.289 110.576M335.422 113.874C335.053 114.143 334.678 114.406 334.298 114.663M339.289 110.576C341.619 112.699 343.882 116.489 334.298 114.663M313.981 36.1595C287.744 65.6511 214.759 70.035 181.546 68.5404C152.925 70.201 87.6979 66.0496 55.7498 36.1595M313.981 36.1595C314.483 33.1628 313.539 29.4996 310.321 25.6979M55.7498 36.1595C54.5193 33.3257 55.1841 29.6215 59.3197 25.6979M65.7336 86.9727C74.5526 124.335 100.976 199.559 136.119 201.552M310.321 25.6979C299.988 13.489 266.204 -0.147237 181.546 2.284C102.102 4.56548 69.725 15.8262 59.3197 25.6979M310.321 25.6979C308.849 27.6063 306.664 29.8111 303.723 32.1741M59.3197 25.6979C60.4949 27.8009 61.9713 29.7918 63.7119 31.676M63.7119 31.676C70.5425 26.3622 86.9991 16.2327 98.1809 18.2254M63.7119 31.676C70.7235 39.2656 82.0223 45.1228 95.1858 49.5912M147.101 10.7529C155.089 9.75652 172.46 7.96312 178.051 8.76019M189.533 8.76019C199.516 8.59413 219.684 8.76019 220.482 10.7529M95.1858 49.5912C123.345 59.1497 160.036 62.3527 181.546 62.5624C223.246 62.5624 253.815 55.9297 274.894 47.8328M95.1858 49.5912C117.816 40.608 185.439 27.6798 274.894 47.8328M274.894 47.8328C288.088 42.7643 297.564 37.1222 303.723 32.1741M276.891 176.892C290.702 176.975 319.322 178.536 323.315 184.116M89.4387 177.141C72.718 177.473 38.378 180.23 34.7838 188.599M58.2457 214.504C71.2247 223.305 106.767 240.508 145.105 238.914M230.965 236.423C248.271 234.431 284.878 228.951 292.865 222.973M267.406 17.2291C278.139 19.2217 300.429 25.0005 303.723 32.1741M299.354 64.5551C299.521 84.1497 292.965 134.897 265.409 181.127M250.933 196.072L258.92 187.603M103.672 195.574L87.1987 200.057C86.6995 200.721 86.1005 201.95 87.6979 201.552C89.2953 201.153 99.6785 198.729 104.67 197.566L103.672 195.574Z" stroke="#AF9283" stroke-width="4"/>
</svg>
